<?xml version="1.0" standalone="no"?>
<!DOCTYPE svg PUBLIC "-//W3C//DTD SVG 20010904//EN"
 "http://www.w3.org/TR/2001/REC-SVG-20010904/DTD/svg10.dtd">
<svg version="1.0" xmlns="http://www.w3.org/2000/svg"
 width="225.000000pt" height="225.000000pt" viewBox="0 0 225.000000 225.000000"
 preserveAspectRatio="xMidYMid meet">
<metadata>
Created by potrace 1.14, written by Peter Selinger 2001-2017
</metadata>
<g transform="translate(0.000000,225.000000) scale(0.100000,-0.100000)"
fill="#000000" stroke="none">
<path d="M925 2214 c-505 -89 -886 -512 -921 -1021 -31 -467 246 -911 683
-1093 144 -60 356 -96 492 -84 363 31 663 203 859 491 93 138 152 294 178 478
15 102 16 136 6 230 -21 199 -75 354 -177 511 -240 369 -688 564 -1120 488z
m331 -65 c446 -62 805 -417 879 -870 19 -120 19 -202 -1 -320 -39 -231 -139
-423 -302 -581 -135 -131 -287 -216 -470 -265 -85 -23 -117 -26 -257 -26 -140
0 -172 3 -257 26 -590 157 -922 764 -732 1335 69 207 228 418 404 533 222 146
477 204 736 168z"/>
<path d="M590 1868 c-73 -50 -75 -56 -78 -294 l-3 -214 280 0 281 0 0 265 0
265 -224 0 c-215 0 -224 -1 -256 -22z m238 -120 c7 -7 12 -31 12 -54 l0 -43
52 -3 c43 -2 54 -7 56 -22 6 -27 -24 -46 -69 -46 -37 0 -38 -1 -41 -41 -2 -27
-9 -46 -20 -53 -29 -18 -53 4 -56 53 -3 40 -4 41 -41 41 -49 0 -76 19 -67 48
6 19 15 22 57 22 l49 0 0 36 c0 63 35 95 68 62z"/>
<path d="M1140 1626 l0 -266 286 0 285 0 -3 208 c-3 230 -8 249 -70 294 -32
22 -40 23 -265 26 l-233 3 0 -265z m421 -2 c9 -11 10 -20 2 -32 -9 -15 -30
-17 -143 -17 -113 0 -134 2 -143 17 -8 12 -7 21 2 32 11 13 37 16 141 16 104
0 130 -3 141 -16z"/>
<path d="M512 1076 c3 -238 5 -244 78 -294 32 -21 41 -22 256 -22 l224 0 0
265 0 265 -281 0 -280 0 3 -214z m255 32 l33 -32 34 33 c36 35 62 37 80 9 8
-14 4 -24 -23 -52 l-34 -35 32 -36 c34 -40 36 -46 19 -63 -18 -18 -36 -15 -73
14 l-35 26 -31 -26 c-33 -28 -58 -33 -77 -14 -17 17 -15 23 19 63 l32 36 -32
32 c-36 38 -36 40 -15 61 22 23 34 20 71 -16z"/>
<path d="M1140 1024 l0 -265 233 3 c225 3 233 4 265 26 62 45 67 64 70 295 l3
207 -285 0 -286 0 0 -266z m396 104 c6 -19 -7 -36 -86 -110 -52 -49 -102 -88
-111 -88 -10 0 -24 10 -30 22 -10 19 -3 29 82 110 98 93 131 108 145 66z"/>
<path d="M530 530 c0 -56 3 -70 15 -70 10 0 15 11 16 33 l1 32 7 -30 c9 -45
37 -44 49 2 l10 38 1 -37 c1 -27 6 -38 16 -38 12 0 15 15 15 71 0 67 -1 70
-22 67 -17 -2 -25 -14 -33 -48 -12 -46 -14 -45 -29 23 -4 18 -13 27 -26 27
-18 0 -20 -7 -20 -70z"/>
<path d="M850 530 c0 -56 3 -70 15 -70 11 0 15 11 15 40 0 29 4 40 15 40 11 0
15 -11 15 -40 0 -29 4 -40 15 -40 25 0 20 86 -5 100 -11 6 -25 8 -30 5 -6 -3
-10 3 -10 14 0 12 -7 21 -15 21 -12 0 -15 -14 -15 -70z"/>
<path d="M1030 580 c-24 -24 -26 -67 -4 -98 13 -19 24 -22 65 -21 l50 2 -3 36
c-3 31 -7 36 -27 36 -13 0 -26 -6 -28 -12 -3 -7 2 -13 11 -13 23 0 19 -18 -6
-26 -40 -12 -64 48 -32 80 19 20 28 20 44 1 13 -16 40 -20 40 -7 0 17 -37 42
-63 42 -15 0 -36 -9 -47 -20z"/>
<path d="M1380 585 c0 -8 7 -15 15 -15 8 0 15 7 15 15 0 8 -7 15 -15 15 -8 0
-15 -7 -15 -15z"/>
<path d="M788 573 c-2 -10 -2 -39 0 -65 3 -36 8 -48 21 -48 15 0 18 28 12 118
-1 18 -28 14 -33 -5z"/>
<path d="M698 559 c-30 -17 -21 -31 13 -24 22 5 29 4 25 -4 -4 -6 -15 -11 -25
-11 -24 0 -43 -23 -35 -43 4 -12 18 -16 47 -15 l42 0 -3 49 c-2 27 -8 49 -12
49 -5 0 -14 2 -22 5 -7 2 -21 0 -30 -6z m37 -69 c-3 -5 -13 -10 -21 -10 -8 0
-14 5 -14 10 0 6 9 10 21 10 11 0 17 -4 14 -10z"/>
<path d="M1170 550 c-22 -22 -25 -42 -10 -71 13 -24 62 -25 81 -2 13 15 11 16
-18 10 -18 -3 -35 -2 -38 3 -4 6 9 10 29 10 29 0 36 4 36 19 0 18 -34 51 -52
51 -5 0 -17 -9 -28 -20z m50 -20 c0 -5 -9 -10 -21 -10 -11 0 -17 5 -14 10 3 6
13 10 21 10 8 0 14 -4 14 -10z"/>
<path d="M1293 563 c-20 -4 -23 -11 -23 -54 0 -57 17 -67 22 -11 2 25 8 37 18
37 10 0 16 -12 18 -37 2 -25 8 -38 18 -38 23 0 19 87 -5 100 -11 5 -21 9 -23
9 -2 -1 -13 -4 -25 -6z"/>
<path d="M1555 556 c-23 -17 -14 -43 20 -56 35 -13 31 -23 -6 -15 -23 5 -30 4
-27 -5 6 -19 40 -29 66 -19 33 13 28 46 -10 64 l-33 15 33 -6 c36 -6 44 9 13
26 -26 13 -33 13 -56 -4z"/>
<path d="M1380 510 c0 -38 4 -50 15 -50 11 0 15 12 15 50 0 38 -4 50 -15 50
-11 0 -15 -12 -15 -50z"/>
<path d="M1432 513 l3 -48 43 -3 42 -3 0 50 c0 28 -4 51 -10 51 -5 0 -10 -11
-10 -24 0 -35 -10 -56 -26 -56 -10 0 -14 12 -14 40 0 30 -4 40 -16 40 -12 0
-14 -10 -12 -47z"/>
</g>
</svg>
